# xmcd
#
# Track frame offsets: 
#        150
#        17837
#        33340
#        53122
#        64260
#        80825
#        98317
#        123852
#        140507
#        166060
#        185320
#        201040
#        223312
#
# Disc length: 3137 seconds
#
# Revision: 0
# Processed by: cddbd v1.5.2PL0 Copyright (c) Steve Scherf et al.
# Submitted via: ExactAudioCopy v0.99pb4
#
DISCID=af0c3f0d
DTITLE=Blues Balls - Playing On Me
DYEAR=2006
DGENRE=Blues
TTITLE0=Cold Sweat
TTITLE1=Playing On Me
TTITLE2=Girl Alone
TTITLE3=Kansas City
TTITLE4=Purple Haze
TTITLE5=Cut You Loose
TTITLE6=Feeling
TTITLE7=Before You Accuse Me
TTITLE8=Ain`t Gonna Give Up On Love
TTITLE9=Boom Boom
TTITLE10=Mintes To Travel
TTITLE11=Deamons Eye
TTITLE12=The House Is Rockin
EXTD=
EXTT0=
EXTT1=
EXTT2=
EXTT3=
EXTT4=
EXTT5=
EXTT6=
EXTT7=
EXTT8=
EXTT9=
EXTT10=
EXTT11=
EXTT12=
PLAYORDER=
